<svg width="166.406" height="100.342" viewBox="0 0 166.406 100.342" xmlns="http://www.w3.org/2000/svg"><g id="svgGroup" stroke-linecap="round" fill-rule="evenodd" font-size="9pt" stroke="#000000" stroke-width="0" fill="#47b4dc" style="stroke:#000000;stroke-width:0;fill:#47b4dc"><path d="M 122.559 83.301 L 110.01 58.203 L 100.732 58.203 L 100.732 83.301 L 83.594 83.301 L 83.594 12.207 L 111.572 12.207 A 46.032 46.032 0 0 1 119.277 12.812 Q 126.558 14.05 131.348 17.822 A 18.281 18.281 0 0 1 138.303 30.6 A 26.62 26.62 0 0 1 138.477 33.691 Q 138.477 39.954 136.339 44.408 A 17.397 17.397 0 0 1 135.474 45.996 A 18.735 18.735 0 0 1 130.716 51.137 A 26.547 26.547 0 0 1 126.074 53.906 L 140.918 82.568 L 140.918 83.301 L 122.559 83.301 Z M 144.141 12.012 L 144.141 0 L 166.406 0 L 166.406 100.342 L 144.141 100.342 L 144.141 88.379 L 149.951 88.379 L 149.951 12.012 L 144.141 12.012 Z M 22.266 0 L 22.266 12.012 L 16.504 12.012 L 16.504 88.379 L 22.266 88.379 L 22.266 100.342 L 0 100.342 L 0 0 L 22.266 0 Z M 55.713 60.986 L 55.713 12.207 L 72.803 12.207 L 72.803 60.986 Q 72.803 67.773 69.653 73.096 Q 66.504 78.418 60.864 81.348 Q 55.225 84.277 48.291 84.277 A 37.191 37.191 0 0 1 41.222 83.646 Q 34.555 82.355 30.225 78.418 A 19.044 19.044 0 0 1 24.473 68.34 A 28.922 28.922 0 0 1 23.779 61.816 L 40.967 61.816 A 22.459 22.459 0 0 0 41.093 64.286 Q 41.427 67.3 42.651 68.896 Q 44.064 70.74 47.075 71.037 A 12.394 12.394 0 0 0 48.291 71.094 A 7.597 7.597 0 0 0 50.723 70.723 A 6.13 6.13 0 0 0 53.784 68.433 Q 55.298 66.345 55.623 62.949 A 20.564 20.564 0 0 0 55.713 60.986 Z M 100.732 25.439 L 100.732 44.971 L 111.572 44.971 A 14.797 14.797 0 0 0 114.388 44.72 Q 115.984 44.411 117.219 43.717 A 7.312 7.312 0 0 0 118.921 42.407 Q 121.245 39.991 121.379 35.774 A 16.452 16.452 0 0 0 121.387 35.254 Q 121.387 30.664 118.896 28.052 A 7.937 7.937 0 0 0 115.357 25.941 Q 114.106 25.565 112.603 25.471 A 16.527 16.527 0 0 0 111.572 25.439 L 100.732 25.439 Z" vector-effect="non-scaling-stroke"/></g></svg>