<svg width="175.41" height="83.97" viewBox="0 0 175.41 83.97" xmlns="http://www.w3.org/2000/svg"><g id="svgGroup" stroke-linecap="round" fill-rule="evenodd" font-size="9pt" stroke="#2189af" stroke-width="0.25mm" fill="#2189af" style="stroke:#2189af;stroke-width:0.25mm;fill:#2189af"><path d="M 132.3 45.45 L 138.78 52.56 L 138.78 73.44 L 126.54 73.44 L 126.54 55.35 L 121.14 49.32 L 101.52 49.32 L 101.52 73.44 L 89.28 73.44 L 89.28 10.44 L 128.79 10.44 L 138.42 20.16 L 138.42 39.24 L 132.3 45.45 Z M 158.85 83.97 L 145.53 83.97 L 145.53 73.71 L 153.45 73.71 L 156.51 70.65 L 156.51 49.05 L 163.08 42.3 L 163.08 41.58 L 156.51 34.83 L 156.51 13.32 L 153.45 10.26 L 145.53 10.26 L 145.53 0 L 158.85 0 L 168.39 9.54 L 168.39 31.86 L 175.41 39.06 L 175.41 44.82 L 168.39 52.02 L 168.39 74.43 L 158.85 83.97 Z M 16.56 83.97 L 7.02 74.43 L 7.02 52.02 L 0 44.82 L 0 39.06 L 7.02 31.86 L 7.02 9.54 L 16.56 0 L 29.88 0 L 29.88 10.26 L 21.96 10.26 L 18.9 13.32 L 18.9 34.83 L 12.33 41.58 L 12.33 42.3 L 18.9 49.05 L 18.9 70.65 L 21.96 73.71 L 29.88 73.71 L 29.88 83.97 L 16.56 83.97 Z M 43.83 73.44 L 33.03 62.55 L 33.03 50.85 L 44.91 50.85 L 44.91 58.41 L 49.5 63 L 61.47 63 L 65.79 58.77 L 65.79 10.44 L 78.03 10.44 L 78.03 62.91 L 67.5 73.44 L 43.83 73.44 Z M 101.52 20.7 L 101.52 39.24 L 123.21 39.24 L 126.36 36.09 L 126.36 23.85 L 123.21 20.7 L 101.52 20.7 Z" vector-effect="non-scaling-stroke"/></g></svg>